<svg width="204" height="2" viewBox="0 0 204 2" fill="none" xmlns="http://www.w3.org/2000/svg">
<path d="M0 1L4.03162 1.00988M90.3083 1.22134L94.3399 1.23123M38.7036 1.09486L42.7352 1.10474M129.012 1.31621L133.043 1.32609M19.3518 1.04743L23.3834 1.05731M109.66 1.26877L113.692 1.27866M58.0553 1.14229L62.087 1.15217M148.364 1.36364L152.395 1.37352M6.45059 1.01581L10.4822 1.02569M96.7589 1.23715L100.791 1.24704M45.1541 1.11067L49.1858 1.12055M135.462 1.33202L139.494 1.3419M25.8024 1.06324L29.834 1.07312M116.111 1.28458L120.142 1.29447M64.5059 1.1581L68.5375 1.16798M154.814 1.37945L158.846 1.38933M12.9012 1.03162L16.9328 1.0415M103.209 1.25296L107.241 1.26285M51.6047 1.12648L55.6364 1.13636M141.913 1.34783L145.945 1.35771M32.253 1.07905L36.2846 1.08893M122.561 1.3004L126.593 1.31028M70.9565 1.17391L74.9881 1.18379M161.265 1.39526L165.296 1.40514M77.4071 1.18972L81.4387 1.1996M167.715 1.41107L171.747 1.42095M83.8577 1.20553L87.8893 1.21542M174.166 1.42688L178.198 1.43676M180.617 1.44269L184.648 1.45257M187.067 1.4585L191.099 1.46838M193.518 1.47431L197.549 1.48419M199.968 1.49012L204 1.5" stroke="black"/>
</svg>
