<svg width="15" height="19" viewBox="0 0 15 19" fill="none" xmlns="http://www.w3.org/2000/svg">
<path d="M3.022 19V0.435999H7.91C10.1807 0.435999 11.862 0.895332 12.954 1.814C14.0633 2.73267 14.618 4.06733 14.618 5.818C14.618 6.99667 14.3493 8.01067 13.812 8.86C13.2747 9.692 12.4773 10.3333 11.42 10.784C10.38 11.2347 9.08867 11.46 7.546 11.46H5.362V19H3.022ZM0.76 15.464V13.774H9.652V15.464H0.76ZM0.76 11.46V9.484H6.714V11.46H0.76ZM7.208 9.484C8.26533 9.484 9.158 9.37133 9.886 9.146C10.6313 8.92067 11.2033 8.548 11.602 8.028C12.0007 7.508 12.2 6.79733 12.2 5.896C12.2 4.71733 11.836 3.842 11.108 3.27C10.38 2.698 9.24467 2.412 7.702 2.412H5.362V9.484H7.208Z" fill="black"/>
</svg>
